<svg data-v-423bf9ae="" xmlns="http://www.w3.org/2000/svg" viewBox="0 0 932 106" class="iconLeftSlogan"><!----><!----><!----><g data-v-423bf9ae="" id="5ddeb2ee-7002-473c-8d6e-49d78bcb6fde" fill="#000000" transform="matrix(4.687499930150808,0,0,4.687499930150808,121.97760358720569,-17.718749840278186)"><path d="M1.01 3.98L1.01 13.78L2.41 13.78L2.41 9.86L4.82 9.86C6.57 9.86 7.84 8.69 7.84 6.92C7.84 5.14 6.61 3.98 4.82 3.98ZM2.41 5.26L4.66 5.26C5.82 5.26 6.44 5.85 6.44 6.92C6.44 7.98 5.80 8.57 4.66 8.57L2.41 8.57ZM8.74 10.25C8.74 12.35 10.19 13.97 12.32 13.97C13.96 13.97 14.84 13.06 15.36 12.22L14.25 11.59C13.89 12.32 13.30 12.82 12.29 12.82C11.06 12.82 10.19 12.04 10.11 10.78L15.62 10.78L15.62 10.12C15.62 8.11 14.22 6.64 12.21 6.64C10.22 6.64 8.74 8.20 8.74 10.25ZM10.11 9.72C10.21 8.47 11.00 7.78 12.21 7.78C13.41 7.78 14.22 8.51 14.25 9.72ZM23.74 3.98L22.43 3.98L22.43 7.92L22.26 7.92C21.88 7.29 21.25 6.64 19.91 6.64C18.10 6.64 16.69 8.15 16.69 10.30C16.69 12.46 18.10 13.97 19.91 13.97C21.25 13.97 21.88 13.31 22.26 12.68L22.46 12.68L22.46 13.78L23.74 13.78ZM20.24 7.81C21.59 7.81 22.43 8.76 22.43 10.30C22.43 11.84 21.59 12.80 20.24 12.80C18.93 12.80 18.00 11.90 18.00 10.30C18.00 8.71 18.93 7.81 20.24 7.81ZM25.26 10.25C25.26 12.35 26.71 13.97 28.84 13.97C30.48 13.97 31.36 13.06 31.88 12.22L30.77 11.59C30.41 12.32 29.82 12.82 28.81 12.82C27.58 12.82 26.71 12.04 26.63 10.78L32.14 10.78L32.14 10.12C32.14 8.11 30.74 6.64 28.73 6.64C26.74 6.64 25.26 8.20 25.26 10.25ZM26.63 9.72C26.73 8.47 27.52 7.78 28.73 7.78C29.93 7.78 30.74 8.51 30.77 9.72ZM33.52 8.69C33.52 10.00 34.54 10.51 36.08 10.74L36.65 10.82C37.39 10.93 38.28 11.00 38.28 11.72C38.28 12.39 37.58 12.85 36.60 12.85C35.48 12.85 34.59 12.22 34.16 11.19L32.98 11.82C33.52 12.82 34.61 13.97 36.55 13.97C38.32 13.97 39.58 13.05 39.58 11.68C39.58 10.25 38.36 9.86 36.81 9.63L36.23 9.55C35.49 9.44 34.82 9.35 34.82 8.68C34.82 8.09 35.39 7.73 36.16 7.73C36.97 7.73 37.80 8.11 38.56 9.09L39.54 8.39C38.46 7.18 37.53 6.64 36.13 6.64C34.73 6.64 33.52 7.39 33.52 8.69ZM40.25 6.83L40.25 7.98L42.15 7.98L42.15 12.60C42.15 13.30 42.63 13.78 43.30 13.78L45.09 13.78L45.09 12.63L43.83 12.63C43.58 12.63 43.47 12.52 43.47 12.24L43.47 7.98L45.49 7.98L45.49 6.83L43.47 6.83L43.47 4.54L42.15 4.54L42.15 6.83ZM48.12 6.83L46.86 6.83L46.86 13.78L48.17 13.78L48.17 9.69C48.17 8.65 48.71 8.09 49.69 8.09L50.89 8.09L50.89 6.80L50.08 6.80C49.08 6.80 48.52 7.22 48.29 7.95L48.12 7.95ZM51.72 4.82C51.72 5.40 52.19 5.85 52.78 5.85C53.37 5.85 53.84 5.40 53.84 4.82C53.84 4.23 53.37 3.78 52.78 3.78C52.19 3.78 51.72 4.23 51.72 4.82ZM53.44 6.83L52.12 6.83L52.12 13.78L53.44 13.78ZM55.17 8.64L56.31 9.16C56.63 8.36 57.29 7.81 58.41 7.81C59.53 7.81 60.19 8.37 60.19 9.31L60.19 9.51L57.65 9.74C55.89 9.91 55.03 10.63 55.03 11.87C55.03 13.10 56.03 13.97 57.57 13.97C58.98 13.97 59.70 13.31 59.99 12.70L60.19 12.70L60.19 13.78L61.47 13.78L61.47 9.37C61.47 7.71 60.28 6.64 58.44 6.64C56.76 6.64 55.66 7.57 55.17 8.64ZM56.36 11.82C56.36 11.12 56.99 10.84 57.79 10.77L60.19 10.54L60.19 10.72C60.19 11.91 59.40 12.88 57.79 12.88C56.88 12.88 56.36 12.46 56.36 11.82ZM63.35 6.83L63.35 13.78L64.67 13.78L64.67 10.11C64.67 8.68 65.46 7.87 66.74 7.87C67.86 7.87 68.50 8.48 68.50 9.67L68.50 13.78L69.82 13.78L69.82 9.56C69.82 7.67 68.59 6.72 67.14 6.72C65.79 6.72 65.16 7.35 64.83 7.99L64.64 7.99L64.64 6.83ZM75.92 3.98L75.92 13.78L77.32 13.78L77.32 5.46L77.49 5.46L79.97 13.78L82.07 13.78L84.55 5.46L84.71 5.46L84.71 13.78L86.11 13.78L86.11 3.98L83.59 3.98L81.10 12.32L80.93 12.32L78.44 3.98ZM87.88 8.64L89.01 9.16C89.33 8.36 89.99 7.81 91.11 7.81C92.23 7.81 92.89 8.37 92.89 9.31L92.89 9.51L90.36 9.74C88.59 9.91 87.74 10.63 87.74 11.87C87.74 13.10 88.73 13.97 90.27 13.97C91.69 13.97 92.40 13.31 92.69 12.70L92.89 12.70L92.89 13.78L94.18 13.78L94.18 9.37C94.18 7.71 92.99 6.64 91.14 6.64C89.46 6.64 88.37 7.57 87.88 8.64ZM89.07 11.82C89.07 11.12 89.70 10.84 90.50 10.77L92.89 10.54L92.89 10.72C92.89 11.91 92.11 12.88 90.50 12.88C89.59 12.88 89.07 12.46 89.07 11.82ZM97.31 6.83L96.05 6.83L96.05 13.78L97.37 13.78L97.37 9.69C97.37 8.65 97.90 8.09 98.88 8.09L100.09 8.09L100.09 6.80L99.27 6.80C98.28 6.80 97.72 7.22 97.48 7.95L97.31 7.95ZM108.21 6.83L106.27 6.83L102.80 9.76L102.63 9.76L102.63 3.98L101.32 3.98L101.32 13.78L102.63 13.78L102.63 11.49L104.09 10.28L106.57 13.78L108.15 13.78L105.04 9.48ZM108.93 10.25C108.93 12.35 110.39 13.97 112.52 13.97C114.16 13.97 115.04 13.06 115.56 12.22L114.45 11.59C114.09 12.32 113.50 12.82 112.49 12.82C111.26 12.82 110.39 12.04 110.31 10.78L115.82 10.78L115.82 10.12C115.82 8.11 114.42 6.64 112.41 6.64C110.42 6.64 108.93 8.20 108.93 10.25ZM110.31 9.72C110.40 8.47 111.20 7.78 112.41 7.78C113.61 7.78 114.42 8.51 114.45 9.72ZM116.55 6.83L116.55 7.98L118.45 7.98L118.45 12.60C118.45 13.30 118.93 13.78 119.60 13.78L121.39 13.78L121.39 12.63L120.13 12.63C119.88 12.63 119.77 12.52 119.77 12.24L119.77 7.98L121.79 7.98L121.79 6.83L119.77 6.83L119.77 4.54L118.45 4.54L118.45 6.83ZM122.75 4.82C122.75 5.40 123.23 5.85 123.82 5.85C124.40 5.85 124.88 5.40 124.88 4.82C124.88 4.23 124.40 3.78 123.82 3.78C123.23 3.78 122.75 4.23 122.75 4.82ZM124.47 6.83L123.16 6.83L123.16 13.78L124.47 13.78ZM126.43 6.83L126.43 13.78L127.75 13.78L127.75 10.11C127.75 8.68 128.55 7.87 129.82 7.87C130.94 7.87 131.59 8.48 131.59 9.67L131.59 13.78L132.90 13.78L132.90 9.56C132.90 7.67 131.67 6.72 130.23 6.72C128.87 6.72 128.24 7.35 127.92 7.99L127.72 7.99L127.72 6.83ZM140.10 6.83L140.10 7.92L139.90 7.92C139.52 7.29 138.89 6.64 137.55 6.64C135.74 6.64 134.33 8.11 134.33 10.22C134.33 12.33 135.74 13.80 137.55 13.80C138.89 13.80 139.52 13.15 139.90 12.52L140.07 12.52L140.07 15.01C140.07 15.29 139.93 15.43 139.68 15.43L134.95 15.43L134.95 16.58L140.24 16.58C140.91 16.58 141.39 16.10 141.39 15.40L141.39 6.83ZM137.89 12.63C136.57 12.63 135.65 11.77 135.65 10.22C135.65 8.67 136.57 7.81 137.89 7.81C139.23 7.81 140.07 8.72 140.07 10.22C140.07 11.72 139.23 12.63 137.89 12.63ZM143.07 12.88C143.07 13.50 143.56 13.97 144.16 13.97C144.76 13.97 145.25 13.50 145.25 12.88C145.25 12.26 144.76 11.79 144.16 11.79C143.56 11.79 143.07 12.26 143.07 12.88ZM146.48 10.30C146.48 12.43 147.99 13.97 150.07 13.97C152.10 13.97 153.09 12.61 153.40 11.31L152.10 11.06C151.91 11.94 151.38 12.77 150.07 12.77C148.72 12.77 147.80 11.79 147.80 10.30C147.80 8.82 148.72 7.84 150.04 7.84C151.26 7.84 151.97 8.60 152.08 9.56L153.37 9.30C153.09 7.77 151.89 6.64 150.04 6.64C147.99 6.64 146.48 8.18 146.48 10.30ZM154.38 10.30C154.38 12.46 155.89 13.97 157.91 13.97C159.92 13.97 161.43 12.46 161.43 10.30C161.43 8.15 159.92 6.64 157.91 6.64C155.89 6.64 154.38 8.15 154.38 10.30ZM155.69 10.30C155.69 8.76 156.59 7.84 157.91 7.84C159.22 7.84 160.12 8.76 160.12 10.30C160.12 11.84 159.22 12.77 157.91 12.77C156.59 12.77 155.69 11.84 155.69 10.30ZM162.95 6.83L162.95 13.78L164.26 13.78L164.26 9.41C164.26 8.37 164.95 7.84 165.83 7.84C166.63 7.84 167.17 8.29 167.17 9.09L167.17 13.78L168.49 13.78L168.49 9.41C168.49 8.37 169.13 7.84 169.99 7.84C170.80 7.84 171.40 8.29 171.40 9.09L171.40 13.78L172.72 13.78L172.72 9.00C172.72 7.59 171.61 6.72 170.39 6.72C169.27 6.72 168.69 7.29 168.41 7.87L168.21 7.87C167.87 7.24 167.30 6.72 166.31 6.72C165.40 6.72 164.78 7.14 164.43 7.73L164.23 7.73L164.23 6.83Z"></path></g><defs data-v-423bf9ae=""><linearGradient data-v-423bf9ae="" gradientTransform="rotate(25)" id="373f1aec-c0c9-46af-a326-faead6466e39" x1="0%" y1="0%" x2="100%" y2="0%"><stop data-v-423bf9ae="" offset="0%" style="stop-color: rgb(8, 199, 214); stop-opacity: 1;"></stop><stop data-v-423bf9ae="" offset="100%" style="stop-color: rgb(2, 2, 62); stop-opacity: 1;"></stop></linearGradient></defs><g data-v-423bf9ae="" id="2d9e5266-b71e-4a97-a404-ea12aab3aac9" transform="matrix(1.084712388780382,0,0,1.084712388780382,-0.4246345073271556,-1.0476716526188596)" stroke="none" fill="url(#373f1aec-c0c9-46af-a326-faead6466e39)"><switch><g><path d="M81.105 26.984a16.3 16.3 0 0 0 .693-1.059v-.873h.486c.117-.228.23-.459.34-.692h-.826v-1.045h1.045v.543c.273-.656.506-1.326.691-2.007v-.274h.072c.059-.229.111-.461.16-.692h-.232v-1.047h.416c.031-.229.059-.46.082-.69h-.498v-1.046h.568c.008-.231.012-.463.01-.692h-.578v-1.047l.537.001a22.796 22.796 0 0 0-.064-.692h-.473v-1.047h.318a16.195 16.195 0 0 0-.139-.69h-.18v-.72a16.348 16.348 0 0 0-.691-2.011v.992h-1.045v-1.047h1.021a17.019 17.019 0 0 0-.312-.691h-.709V9.41h.16a17.345 17.345 0 0 0-.854-1.332v.642h-1.045V7.674h.746a16.472 16.472 0 0 0-.555-.692h-.191v-.223c-.223-.254-.453-.5-.693-.742v.965H78.32V5.937h.963a14.946 14.946 0 0 0-.74-.692h-.223V5.05a18.668 18.668 0 0 0-.693-.554v.748h-1.045V4.198h.639a16.448 16.448 0 0 0-1.33-.854v.161h-1.049v-.71c-.227-.11-.459-.215-.689-.314v1.025h-1.047V2.46h.994a16.146 16.146 0 0 0-2.012-.692h-.717v-.18a15.442 15.442 0 0 0-.693-.139v.318h-1.045v-.472a18.446 18.446 0 0 0-.694-.064v.536h-1.045v-.579a17.63 17.63 0 0 0-.691.011v.568h-1.049V1.27c-.23.021-.461.05-.689.084v.414h-1.047v-.233c-.232.048-.461.101-.691.159v.073h-.275c-.682.186-1.352.418-2.009.692h.545v1.047h-1.047V2.68c-.232.106-.463.22-.693.338v.488h-.871c-.359.216-.713.445-1.061.692h.197v1.046h-1.049v-.398c-.166.136-.332.276-.496.42.16.308.326.616.496.924v-.253l1.049-.002v1.047h-.602c.135.229.271.461.412.692h.189v.309c.291.477.594.953.91 1.428h.824v1.047h-.111c.262.374.529.749.805 1.123v-.432h1.047v1.047h-.586c.176.231.354.461.533.69h.053v.067c.227.288.457.575.691.863v-.929h1.047v1.046h-.951c.189.231.383.461.578.69h.373v.438c.377.437.762.87 1.154 1.301l.584.001v.628c.35.372.703.742 1.066 1.11h.672v.67c.365.362.736.717 1.107 1.066h.629v.583c.432.394.865.779 1.301 1.156h.438v.372c.23.195.459.388.693.577v-.949h1.045v1.046h-.93c.287.234.574.464.863.692h.066v.051c.23.181.461.358.691.533v-.584h1.047v1.045h-.432c.373.276.748.544 1.121.806v-.113h1.049v.826c.477.315.951.619 1.428.912h.309v.188c.23.139.461.276.691.41l.002-.599h1.045v1.046h-.256c.309.171.617.336.926.497.145-.163.283-.329.42-.497h-.396v-1.046h1.045v.195zm0-2.624H80.06v-1.045h1.045v1.045zm-1.044-3.475V19.84h1.045v1.045h-1.045zm1.044.692v1.046H80.06v-1.046h1.045zM66.154 5.937h1.049v1.045h-1.049V5.937zm-.689 1.044h-1.047V5.937h1.047v1.044zm2.43-1.044l1.045-.002v1.047h-1.045V5.937zm-.692 1.736V8.72h-1.047V7.674l1.047-.001zm.692.001h1.045V8.72h-1.045V7.674zm8.689 6.952h1.045v1.045h-1.045v-1.045zm-.691 1.045h-1.049v-1.047h1.049v1.047zm.691-1.737v-1.048h1.045v1.048h-1.045zm-.691 0h-1.049v-1.048h1.049v1.048zm-1.739 0h-1.047v-1.046h1.047v1.046zm.692-1.739v-1.047h1.047v1.047h-1.047zm-.692 0h-1.047v-1.047h1.047v1.047zm-1.738 0h-1.045v-1.047h1.045v1.047zm.691-1.738V9.41h1.047v1.047h-1.047zm-.691 0h-1.045V9.41h1.045v1.047zm-1.738 0h-1.045V9.41h1.045v1.047zm.693-1.737V7.674h1.045V8.72h-1.045zm-.693 0h-1.045l-.002-1.046h1.047V8.72zm-1.739.69v1.047h-1.045V9.41h1.045zm0 1.738v1.047h-1.045v-1.047h1.045zm.694 0h1.045v1.047h-1.045v-1.047zm1.045 1.738v1.048h-1.047l.002-1.048h1.045zm.693 0h1.045v1.048h-1.045v-1.048zm1.045 1.74v1.045h-1.045v-1.045h1.045zm.693-.002h1.045v1.047h-1.047l.002-1.047zm1.045 1.739v1.046h-1.047v-1.047l1.047.001zm.692-.001l1.047.001v1.046h-1.047v-1.047zm1.736.001l1.047-.001v1.047h-1.047v-1.046zm1.74 0l1.045-.001v1.047h-1.045v-1.046zm-.693 1.737v1.048h-1.045V18.1h1.045zm.693.002h1.045v1.046h-1.045v-1.046zm1.045 1.736v1.047h-1.045v-1.047h1.045zm.694-.691v-1.046l1.045-.002v1.048h-1.045zm0-1.738v-1.046h1.045v1.046h-1.045zm0-1.738v-1.045h1.045v1.045h-1.045zm-.694 0h-1.045v-1.047h1.045v1.047zm-1.045-1.737v-1.046h1.045v1.046h-1.045zm0-1.739v-1.047h1.045v1.047h-1.045zm-.693 0h-1.047v-1.047h1.047v1.047zm-1.045-1.738V9.41h1.045v1.047h-1.045zm-.691 0h-1.049V9.41h1.049v1.047zM74.844 8.72V7.674h1.049V8.72h-1.049zm-.69 0h-1.047V7.674h1.047V8.72zm-1.047-1.739l.002-1.045h1.045v1.045h-1.047zm-.691 0h-1.045l-.002-1.045h1.047v1.045zm-1.738 0h-1.045V5.937h1.045v1.044zm-1.045-1.737V4.198h1.045v1.046h-1.045zm-.694 0h-1.045V4.196h1.045v1.048zm-1.736 0h-1.047V4.198h1.047v1.046zm-1.738 0h-1.047V4.198h1.047v1.046zm-1.738 0H62.68V4.196h1.047v1.048zm-1.741 1.737h-1.045V5.937h1.045v1.044zm.694-1.044h1.047v1.045H62.68V5.937zm1.047 1.737V8.72H62.68V7.674h1.047zm.691 0h1.047V8.72h-1.047V7.674zm1.047 1.736v1.047h-1.047V9.41h1.047zm.691 0h1.047v1.047h-1.047V9.41zm1.047 1.738v1.047h-1.047l-.002-1.047h1.049zm0 1.738v1.048h-1.047v-1.048h1.047zm.692 0l1.045.002v1.046h-1.045v-1.048zm1.044 1.738v1.047h-1.045v-1.047h1.045zm.694.002h1.045v1.045h-1.045v-1.045zm1.045 1.736v1.047h-1.045v-1.046l1.045-.001zm.693.001h1.045v1.046h-1.045v-1.046zm1.045 1.737v1.048h-1.045V18.1h1.045zm.691.002h1.047v1.046h-1.045l-.002-1.046zm1.737 0h1.049v1.046h-1.049v-1.046zm1.049 1.738v1.045h-1.049V19.84h1.049zm.691 0h1.045v1.045h-1.045V19.84zm1.045 1.737v1.046h-1.045l-.002-1.046h1.047zm.693 0h1.045v1.046h-1.045v-1.046zm1.045 1.738v1.045h-1.045v-1.045h1.045zm3.477-.692h-1.045v-1.046h1.045v1.046zm0-1.738h-1.045V19.84h1.045v1.045zm0-1.738h-1.045v-1.046h1.045v1.046zm0-1.738h-1.045l-.002-1.047 1.047.001v1.046zm0-1.738h-1.045v-1.047l1.045.002v1.045zm0-2.785v1.048h-1.045v-1.048h1.045zm-1.739 1.048H80.06v-1.048h1.045v1.048zm0-1.739H80.06v-1.047h1.045v1.047zm0-2.785v1.047H80.06V9.41h1.045zm-1.738 1.047h-1.045V9.41h1.045v1.047zm0-2.783V8.72h-1.045V7.674h1.045zM77.629 8.72h-1.045V7.674h1.045V8.72zm0-2.783v1.045h-1.047V5.937h1.047zm-1.736 1.044h-1.047V5.937h1.047v1.044zm0-2.783v1.046h-1.049V4.198h1.049zm-1.739-.002v1.048h-1.047V4.196h1.047zm-1.738 1.048h-1.045V4.198h1.045v1.046zm0-2.785v1.047h-1.045V2.459h1.045zm-1.738 0v1.047h-1.045V2.459h1.045zm-1.739.001v1.046h-1.045V2.46h1.045zm-1.736-.001v1.047h-1.047V2.459h1.047zm-1.738 0v1.047h-1.047V2.459h1.047zm-2.785.001h1.047v1.046H62.68V2.46zm-.692 1.738v1.046h-1.047V4.198h1.047zm-2.785-.002h1.045l.002 1.048h-1.047V4.196zm0 1.741h1.045v1.045h-1.045V5.937zm0 2.783V7.674h1.047l-.002 1.046h-1.045zm1.738-1.046h1.047V8.72h-1.047V7.674zm0 2.783V9.41h1.047v1.047h-1.047zM62.68 9.41h1.047v1.047H62.68V9.41zm0 2.785v-1.047h1.047v1.047H62.68zm1.738-1.047h1.047v1.047h-1.047v-1.047zm0 1.738h1.047v1.048h-1.047v-1.048zm0 2.785v-1.045h1.047v1.045h-1.047zm1.738-1.047h1.047v1.047h-1.047v-1.047zm0 2.785l-.002-1.047h1.049v1.047h-1.047zm1.739-1.046l1.045-.001v1.047h-1.045v-1.046zm0 2.784v-1.046h1.045v1.046h-1.045zm1.738-1.045l1.045-.002v1.048h-1.045v-1.046zm0 2.783l-.002-1.045h1.047v1.045h-1.045zm1.738 0V19.84h1.045v1.045h-1.045zm1.736-1.047h1.047v1.047h-1.047v-1.047zm0 2.785v-1.046h1.047v1.046h-1.047zm1.739-1.046h1.047v1.046h-1.047v-1.046zm-.002 2.783v-1.045h1.049v1.045h-1.049zm1.74-1.045h1.045v1.045h-1.045v-1.045zm-.002 2.784l.002-1.046h1.045v1.046h-1.047zm1.74 0v-1.046h1.045v1.046h-1.045zm1.739 0v-1.046h1.045v1.046h-1.045zM76.916 31.433c.418-.37.824-.754 1.223-1.144h-.533v-.96a53.24 53.24 0 0 1-1.305-.777h-.434v-.272c-.229-.146-.461-.293-.689-.443v.715h-1.047v-1.046h.545a48.738 48.738 0 0 1-1.236-.854v.161h-1.047v-.921a60.793 60.793 0 0 1-1.072-.817h-.666v-.525c-.49-.395-.977-.798-1.461-1.212h-.277v-.237c-.23-.2-.461-.402-.691-.606v.844h-1.047v-1.046H68a55.11 55.11 0 0 1-.76-.692h-.062v-.059c-.23-.214-.461-.432-.691-.651v.71H65.44v-1.046h.699a56.89 56.89 0 0 1-1.39-1.389v.697h-1.045v-1.045h.709a59.928 59.928 0 0 1-.65-.692h-.059v-.062a62.402 62.402 0 0 1-.693-.76v.821h-1.045v-1.046h.844a93.925 93.925 0 0 1-.607-.692h-.236v-.277a64.162 64.162 0 0 1-1.211-1.462h-.527v-.667a58.352 58.352 0 0 1-.818-1.071h-.92v-1.046h.162a63.643 63.643 0 0 1-.854-1.237v.545H56.75v-1.045h.715c-.15-.231-.297-.463-.443-.692h-.272v-.434a60.429 60.429 0 0 1-.777-1.305h-.959v-.533c-.391.399-.773.808-1.145 1.224h.451v1.048h-1.045v-.349c-.275.34-.541.686-.789 1.041h.096v1.045h-.76a9.956 9.956 0 0 0-.754 1.62c-.098.268-.188.538-.273.811h.049v1.046h-.365c-.067.229-.132.461-.199.692h.564v1.045h-.867c-.249.826-.521 1.643-.871 2.431h.002v1.045h-.528a9.346 9.346 0 0 1-.432.692h.96V21.6h-1.046v-.92a9.006 9.006 0 0 1-.384.507c.302.367.608.735.921 1.105h.509v.599c.325.378.656.759.99 1.14h.746v.84a317 317 0 0 0 .816.897h.922v.994l.703.744h1.035v1.046h-.027c.238.244.479.489.721.733v-.041h1.045v1.045h-.041c.242.242.49.481.732.72v-.027h1.047v1.035c.248.236.496.47.744.703h.994v.922l.896.815h.842l-.002.746c.383.336.762.667 1.141.992h.6l-.002.509c.371.312.738.621 1.105.921.166-.136.336-.263.508-.384h-.92v-1.046h1.045v.96c.229-.154.459-.299.691-.432v-.528h1.047v.002c.787-.35 1.604-.622 2.43-.869v-.871h1.045v.566l.693-.199v-.367h1.047l-.002.05c.273-.085.543-.176.812-.272.559-.2 1.098-.456 1.619-.754v-.761h1.047v.098c.352-.249.699-.513 1.037-.79h-.348v-1.046h1.049v.451zm-1.738-2.189v1.045h-1.047v-1.045h1.047zM54.32 13.603v1.046h-1.045v-1.046h1.045zm-1.045-.693v-1.046h1.045v1.046h-1.045zm16.686 17.379h-1.045v-1.045h1.045v1.045zm.693-1.045h1.047l-.002 1.045h-1.045v-1.045zM54.32 18.124h-1.045v-1.046h1.045v1.046zm.694-1.046h1.045v1.046h-1.045v-1.046zm-.694 1.738v1.045h-1.045v-1.045h1.045zm.694 0h1.045v1.045h-1.045v-1.045zm1.736 0h1.047v1.045H56.75v-1.045zm-.691 1.738V21.6h-1.045v-1.046h1.045zm.691 0h1.047V21.6H56.75v-1.046zm1.047 1.738v1.046H56.75v-1.046h1.047zm.691 0h1.047v1.046h-1.047v-1.046zm1.047 1.738v1.045h-1.047V24.03h1.047zm.692 0h1.047l-.002 1.045h-1.045V24.03zm1.046 1.738l-.002 1.046h-1.045v-1.046h1.047zm.692 0h1.045v1.046h-1.045v-1.046zm1.045 1.738l.002 1.046h-1.047v-1.046h1.045zm.693 0h1.045v1.046h-1.045v-1.046zm1.736 0h1.047v1.046h-1.047v-1.046zm-.691 1.738v1.045h-1.045v-1.045h1.045zm.691 0h1.047v1.045h-1.047v-1.045zm1.739 0h1.047v1.045h-1.047v-1.045zm-.692 1.737v1.046h-1.047v-1.046h1.047zm.692 0h1.047v1.046h-1.047v-1.046zm1.738-2.429v-1.046h1.047v1.046h-1.047zm-.691 0h-1.047v-1.046h1.047v1.046zm-1.047-1.739v-1.046h1.047v1.046h-1.047zm-.692 0h-1.047v-1.046h1.047v1.046zm-1.736 0h-1.047v-1.046h1.045l.002 1.046zm-1.047-1.738V24.03h1.045v1.045h-1.045zm-.691 0h-1.047V24.03h1.047v1.045zm-1.047-1.737v-1.046h1.045v1.046h-1.045zm-.694 0h-1.045v-1.046h1.045v1.046zM60.227 21.6v-1.046h1.045V21.6h-1.045zm-.692 0h-1.047v-1.046h1.047V21.6zm-1.047-1.739v-1.045h1.047v1.045h-1.047zm0-1.737v-1.046h1.047v1.046h-1.047zm-.691 0H56.75v-1.046h1.047v1.046zm-1.047-1.738v-1.045h1.047v1.045H56.75zm-.691 0h-1.045v-1.045h1.045v1.045zm-1.045-1.738v-1.046h1.045v1.046h-1.045zm-.694.693v1.045h-1.045v-1.045h1.045zm-1.738 2.783h-1.045v-1.046h1.045v1.046zm0 .692v1.045h-1.045v-1.045h1.045zm0 1.738V21.6h-1.045v-1.046h1.045zm.693 0h1.045V21.6h-1.045v-1.046zm1.045 1.738v1.046h-1.045v-1.046h1.045zm.694 0h1.045v1.046h-1.045v-1.046zm1.045 1.738v1.045h-1.045V24.03h1.045zm.691 0h1.049v1.045H56.75V24.03zm1.047 1.738v1.046H56.75v-1.046h1.047zm.691 0h1.047v1.046h-1.047v-1.046zm1.047 1.738v1.046h-1.047v-1.046h1.047zm.692 0h1.047l-.002 1.046h-1.045v-1.046zm1.044 1.738l.002 1.045h-1.047v-1.045h1.045zm.694 0h1.047v1.045h-1.047v-1.045zm1.045 1.737l.002 1.046h-1.047v-1.046h1.045zm.693 0h1.045v1.046h-1.045v-1.046zm1.045 1.739v1.045h-1.045V32.72h1.045zm.691 0h1.047l.002 1.045h-1.049V32.72zm1.739 0h1.047v1.045h-1.047V32.72zm1.738-1.739h1.047l-.002 1.046h-1.045v-1.046zm1.738 0h1.047l-.002 1.046h-1.045v-1.046zm1.739 0h1.045v1.046h-1.045v-1.046zm1.046-.692h-1.047v-1.045h1.047v1.045zm0-2.783l-.002 1.046h-1.045v-1.046h1.047zm-1.738 1.046h-1.047v-1.046h1.045l.002 1.046zm-.002-2.784v1.046h-1.045v-1.046h1.045zm-1.738 1.045h-1.045v-1.046h1.045v1.046zm0-2.783v1.045h-1.045V24.03h1.045zm-1.736 0v1.045h-1.047V24.03h1.047zm-1.737 1.045h-1.049V24.03h1.047l.002 1.045zm-.002-2.783v1.046h-1.047v-1.046h1.047zm-1.738 1.046h-1.045v-1.046h1.045v1.046zm0-2.784V21.6h-1.045v-1.046h1.045zM63.01 21.6h-1.045v-1.046h1.045V21.6zm.002-2.784v1.045h-1.047v-1.045h1.047zm-1.739 1.045h-1.047v-1.045h1.047v1.045zm0-1.737h-1.047v-1.046h1.047v1.046zm-.002-2.783l.002 1.045h-1.047v-1.045h1.045zm-1.736 1.045h-1.047v-1.045h1.047v1.045zm0-2.783v1.046h-1.047v-1.046h1.047zm-1.738 1.045H56.75v-1.046h1.049l-.002 1.046zm0-2.784v1.046H56.75v-1.046h1.047zm-1.738 1.046h-1.045v-1.046h1.045v1.046zm0-1.738h-1.045v-1.045h1.045v1.045zm-1.045-2.785h1.045v1.048h-1.045V8.387zm-1.739 1.74h1.045v1.045h-1.045v-1.045zm-1.738 1.737h1.045v1.046h-1.045v-1.046zm0 1.739h1.045v1.046h-1.045v-1.046zm0 1.738h1.045v1.045h-1.045v-1.045zM49.8 17.078h1.044v1.046H49.8v-1.046zm0 1.738h1.044v1.045H49.8v-1.045zm0 1.738h1.044V21.6H49.8v-1.046zm0 2.784v-1.046h1.044v1.046H49.8zm1.737-1.046h1.045v1.046h-1.045v-1.046zm0 2.783V24.03h1.045v1.045h-1.045zm1.738-1.045h1.045v1.045h-1.045V24.03zm0 2.783v-1.046h1.045v1.046h-1.045zm1.739-1.045h1.045v1.046h-1.045v-1.046zm0 2.784v-1.046h1.045v1.046h-1.045zm1.736-1.046h1.047v1.046H56.75v-1.046zm0 2.783v-1.045h1.049l-.002 1.045H56.75zm1.738-1.045h1.047v1.045h-1.047v-1.045zm0 2.783v-1.046h1.047v1.046h-1.047zm1.739-1.046h1.045v1.046h-1.045v-1.046zm0 2.784V32.72h1.047v1.045h-1.047zm1.738-1.045h1.045v1.045h-1.045V32.72zm0 2.783v-1.046h1.047l-.002 1.046h-1.045zm1.738 0v-1.046h1.045v1.046h-1.045zm1.736 0v-1.046h1.047v1.046h-1.047zm2.786 0h-1.047v-1.046h1.047v1.046zm.691-1.738V32.72h1.045v1.045h-1.045zm1.738 0V32.72h1.045v1.045h-1.045zm2.784 0h-1.045V32.72h1.045v1.045zm1.74-1.738h-1.047v-1.046h1.047v1.046zm.689-1.738v-1.045h1.049v1.045h-1.049zM38.046 47.438a1.835 1.835 0 0 0 2.593 0l4.242-4.242-2.775-2.774-4.241 4.242a1.838 1.838 0 0 0 0 2.595l.181.179z"></path><path d="M98.664 50.253a44 44 0 0 0-10.477-3.221 45.644 45.644 0 0 0-10.814-.588c-7.229.465-14.383 2.645-20.693 6.306-5.098 2.958-9.173 6.567-12.824 11.36-3.24 4.252-5.75 8.914-8.406 13.852-1.312 2.438-2.669 4.958-4.161 7.516-3.639 6.236-9.881 10.849-15.528 11.477-.475.053-.944.078-1.409.078-3.424 0-6.501-1.443-9.162-4.3-1.854-1.991-2.701-3.92-2.588-5.893.114-1.986 1.211-3.901 2.757-5.731l.233.233c.508.509 1.452.387 2.108-.27l1.354-1.354c1.452 1.028 2.734 1.444 3.234.946l50.836-42.159a126.706 126.706 0 0 1-8.525-7.802 127.17 127.17 0 0 1-7.801-8.525L4.638 73.016c-.498.5-.082 1.782.946 3.234l-1.353 1.354c-.656.656-.777 1.601-.271 2.108l.134.134C2.281 81.964.964 84.247.823 86.739c-.141 2.449.889 4.875 3.061 7.207 1.755 1.884 3.718 3.239 5.838 4.033 1.484.556 3.042.833 4.649.833.524 0 1.053-.029 1.586-.089 3.215-.356 6.556-1.8 9.663-4.176 2.835-2.162 5.394-5.065 7.207-8.172 1.506-2.583 2.87-5.119 4.19-7.57 5.285-9.82 9.848-18.301 20.557-24.514 12.514-7.262 27.602-8.165 40.359-2.415a.889.889 0 0 0 1.176-.445.889.889 0 0 0-.445-1.178zM37.36 44.161l8.485-8.485a2.55 2.55 0 0 1 3.601 0l.181.181c.992.993.992 2.608.001 3.601l-8.485 8.485a2.55 2.55 0 0 1-3.601 0l-.182-.182a2.55 2.55 0 0 1 0-3.6z"></path></g></switch></g><!----><g data-v-423bf9ae="" id="6c288c75-b7a8-45d1-ac20-290f6474dbbb" fill="#000000" transform="matrix(1.6493661005350653,0,0,1.6493661005350653,126.38211544693979,56.53633231162483)"><path d="M7.71 2.21L0.20 2.21L0.20 3.22L3.43 3.22L3.43 11.48L4.48 11.48L4.48 3.22L7.71 3.22ZM22.76 2.21L22.76 7.52C22.76 9.67 21.34 10.57 19.87 10.57C18.40 10.57 16.98 9.67 16.98 7.52L16.98 2.21L15.93 2.21L15.93 7.49C15.93 9.95 17.56 11.59 19.87 11.59C22.19 11.59 23.81 9.94 23.81 7.49L23.81 2.21ZM34.02 7.92L37.24 7.92L39.48 11.48L40.73 11.48L38.29 7.74C39.33 7.50 40.53 6.90 40.53 5.11C40.53 3.35 39.31 2.21 37.41 2.21L32.97 2.21L32.97 11.48L34.02 11.48ZM34.02 3.21L37.28 3.21C38.60 3.21 39.48 3.93 39.48 5.11C39.48 6.55 38.22 6.93 37.23 6.93L34.02 6.93ZM56.28 2.21L56.28 10.01L50.55 2.21L49.34 2.21L49.34 11.48L50.39 11.48L50.39 3.65L56.11 11.48L57.33 11.48L57.33 2.21ZM82.15 3.70L84.66 11.48L85.85 11.48L88.73 2.21L87.63 2.21L85.25 10.00L82.75 2.21L81.55 2.21L79.06 10.00L76.68 2.21L75.57 2.21L78.46 11.48L79.65 11.48ZM100.69 2.21L99.37 2.21L95.44 11.48L96.60 11.48L97.73 8.79L102.33 8.79L103.46 11.48L104.62 11.48ZM98.14 7.83L100.03 3.30L101.92 7.83ZM112.80 2.21L112.80 11.48L118.90 11.48L118.90 10.47L113.85 10.47L113.85 2.21ZM134.95 2.21L133.46 2.21L128.31 7.04L128.31 2.21L127.26 2.21L127.26 11.48L128.31 11.48L128.31 8.44L130.23 6.65L133.85 11.48L135.17 11.48L131.00 5.94ZM150.05 3.22L150.05 2.21L143.23 2.21L143.23 11.48L150.05 11.48L150.05 10.47L144.28 10.47L144.28 7.35L149.44 7.35L149.44 6.33L144.28 6.33L144.28 3.22ZM159.80 7.92L163.02 7.92L165.26 11.48L166.50 11.48L164.07 7.74C165.10 7.50 166.31 6.90 166.31 5.11C166.31 3.35 165.09 2.21 163.18 2.21L158.75 2.21L158.75 11.48L159.80 11.48ZM159.80 3.21L163.06 3.21C164.37 3.21 165.26 3.93 165.26 5.11C165.26 6.55 164.00 6.93 163.00 6.93L159.80 6.93ZM175.73 4.65C175.73 4.03 176.09 3.08 178.19 3.08C179.89 3.08 180.67 3.82 180.78 4.75L181.86 4.75C181.78 3.36 180.66 2.10 178.19 2.10C175.87 2.10 174.71 3.15 174.71 4.66C174.71 7.84 181.05 6.69 181.05 8.96C181.05 10.05 180.07 10.60 178.50 10.60C176.89 10.60 175.59 10.05 175.52 8.71L174.43 8.71C174.57 10.37 175.69 11.59 178.43 11.59C180.71 11.59 182.10 10.64 182.10 8.92C182.10 5.68 175.73 6.80 175.73 4.65ZM201.75 2.21L200.70 2.21L200.70 11.48L201.75 11.48ZM217.97 2.21L217.97 10.01L212.24 2.21L211.02 2.21L211.02 11.48L212.07 11.48L212.07 3.65L217.80 11.48L219.02 11.48L219.02 2.21ZM234.86 2.21L227.35 2.21L227.35 3.22L230.58 3.22L230.58 11.48L231.63 11.48L231.63 3.22L234.86 3.22ZM246.92 2.10C244.10 2.10 242.21 4.21 242.21 6.85C242.21 9.48 244.10 11.59 246.92 11.59C249.73 11.59 251.62 9.48 251.62 6.85C251.62 4.21 249.73 2.10 246.92 2.10ZM246.92 10.57C244.66 10.57 243.26 8.93 243.26 6.85C243.26 4.76 244.66 3.12 246.92 3.12C249.17 3.12 250.57 4.76 250.57 6.85C250.57 8.93 249.17 10.57 246.92 10.57ZM270.90 4.65C270.90 4.03 271.26 3.08 273.36 3.08C275.06 3.08 275.84 3.82 275.95 4.75L277.03 4.75C276.95 3.36 275.83 2.10 273.36 2.10C271.04 2.10 269.88 3.15 269.88 4.66C269.88 7.84 276.22 6.69 276.22 8.96C276.22 10.05 275.24 10.60 273.67 10.60C272.06 10.60 270.76 10.05 270.69 8.71L269.60 8.71C269.74 10.37 270.86 11.59 273.60 11.59C275.88 11.59 277.27 10.64 277.27 8.92C277.27 5.68 270.90 6.80 270.90 4.65ZM292.33 2.21L292.33 6.33L286.94 6.33L286.94 2.21L285.89 2.21L285.89 11.48L286.94 11.48L286.94 7.35L292.33 7.35L292.33 11.48L293.38 11.48L293.38 2.21ZM306.77 2.10C303.95 2.10 302.06 4.21 302.06 6.85C302.06 9.48 303.95 11.59 306.77 11.59C309.58 11.59 311.47 9.48 311.47 6.85C311.47 4.21 309.58 2.10 306.77 2.10ZM306.77 10.57C304.51 10.57 303.11 8.93 303.11 6.85C303.11 4.76 304.51 3.12 306.77 3.12C309.02 3.12 310.42 4.76 310.42 6.85C310.42 8.93 309.02 10.57 306.77 10.57ZM321.20 8.18L324.32 8.18C326.30 8.18 327.52 7.03 327.52 5.19C327.52 3.37 326.30 2.21 324.32 2.21L320.15 2.21L320.15 11.48L321.20 11.48ZM324.25 3.21C325.71 3.21 326.47 3.96 326.47 5.19C326.47 6.44 325.71 7.20 324.25 7.20L321.20 7.20L321.20 3.21ZM336.99 8.18L340.12 8.18C342.09 8.18 343.31 7.03 343.31 5.19C343.31 3.37 342.09 2.21 340.12 2.21L335.94 2.21L335.94 11.48L336.99 11.48ZM340.05 3.21C341.50 3.21 342.26 3.96 342.26 5.19C342.26 6.44 341.50 7.20 340.05 7.20L336.99 7.20L336.99 3.21ZM358.55 3.22L358.55 2.21L351.74 2.21L351.74 11.48L358.55 11.48L358.55 10.47L352.79 10.47L352.79 7.35L357.94 7.35L357.94 6.33L352.79 6.33L352.79 3.22ZM368.30 7.92L371.52 7.92L373.76 11.48L375.00 11.48L372.57 7.74C373.60 7.50 374.81 6.90 374.81 5.11C374.81 3.35 373.59 2.21 371.69 2.21L367.25 2.21L367.25 11.48L368.30 11.48ZM368.30 3.21L371.56 3.21C372.88 3.21 373.76 3.93 373.76 5.11C373.76 6.55 372.50 6.93 371.50 6.93L368.30 6.93ZM384.23 4.65C384.23 4.03 384.59 3.08 386.69 3.08C388.39 3.08 389.17 3.82 389.28 4.75L390.36 4.75C390.28 3.36 389.16 2.10 386.69 2.10C384.37 2.10 383.21 3.15 383.21 4.66C383.21 7.84 389.55 6.69 389.55 8.96C389.55 10.05 388.57 10.60 387.00 10.60C385.39 10.60 384.09 10.05 384.02 8.71L382.93 8.71C383.07 10.37 384.19 11.59 386.93 11.59C389.21 11.59 390.60 10.64 390.60 8.92C390.60 5.68 384.23 6.80 384.23 4.65Z"></path></g></svg>