<svg data-v-423bf9ae="" xmlns="http://www.w3.org/2000/svg" viewBox="0 0 60.463427496610606 60" class="icon"><!----><!----><!----><!----><g data-v-423bf9ae="" id="2e8f4f3a-7fcc-4fa8-b501-513e821f5ea0" transform="matrix(0.6146022425504393,0,0,0.6146022425504393,-0.4979877484037445,-0.7300732132023455)" stroke="none" fill="white"><switch><g><path d="M81.105 26.984a16.3 16.3 0 0 0 .693-1.059v-.873h.486c.117-.228.23-.459.34-.692h-.826v-1.045h1.045v.543c.273-.656.506-1.326.691-2.007v-.274h.072c.059-.229.111-.461.16-.692h-.232v-1.047h.416c.031-.229.059-.46.082-.69h-.498v-1.046h.568c.008-.231.012-.463.01-.692h-.578v-1.047l.537.001a22.796 22.796 0 0 0-.064-.692h-.473v-1.047h.318a16.195 16.195 0 0 0-.139-.69h-.18v-.72a16.348 16.348 0 0 0-.691-2.011v.992h-1.045v-1.047h1.021a17.019 17.019 0 0 0-.312-.691h-.709V9.41h.16a17.345 17.345 0 0 0-.854-1.332v.642h-1.045V7.674h.746a16.472 16.472 0 0 0-.555-.692h-.191v-.223c-.223-.254-.453-.5-.693-.742v.965H78.32V5.937h.963a14.946 14.946 0 0 0-.74-.692h-.223V5.05a18.668 18.668 0 0 0-.693-.554v.748h-1.045V4.198h.639a16.448 16.448 0 0 0-1.33-.854v.161h-1.049v-.71c-.227-.11-.459-.215-.689-.314v1.025h-1.047V2.46h.994a16.146 16.146 0 0 0-2.012-.692h-.717v-.18a15.442 15.442 0 0 0-.693-.139v.318h-1.045v-.472a18.446 18.446 0 0 0-.694-.064v.536h-1.045v-.579a17.63 17.63 0 0 0-.691.011v.568h-1.049V1.27c-.23.021-.461.05-.689.084v.414h-1.047v-.233c-.232.048-.461.101-.691.159v.073h-.275c-.682.186-1.352.418-2.009.692h.545v1.047h-1.047V2.68c-.232.106-.463.22-.693.338v.488h-.871c-.359.216-.713.445-1.061.692h.197v1.046h-1.049v-.398c-.166.136-.332.276-.496.42.16.308.326.616.496.924v-.253l1.049-.002v1.047h-.602c.135.229.271.461.412.692h.189v.309c.291.477.594.953.91 1.428h.824v1.047h-.111c.262.374.529.749.805 1.123v-.432h1.047v1.047h-.586c.176.231.354.461.533.69h.053v.067c.227.288.457.575.691.863v-.929h1.047v1.046h-.951c.189.231.383.461.578.69h.373v.438c.377.437.762.87 1.154 1.301l.584.001v.628c.35.372.703.742 1.066 1.11h.672v.67c.365.362.736.717 1.107 1.066h.629v.583c.432.394.865.779 1.301 1.156h.438v.372c.23.195.459.388.693.577v-.949h1.045v1.046h-.93c.287.234.574.464.863.692h.066v.051c.23.181.461.358.691.533v-.584h1.047v1.045h-.432c.373.276.748.544 1.121.806v-.113h1.049v.826c.477.315.951.619 1.428.912h.309v.188c.23.139.461.276.691.41l.002-.599h1.045v1.046h-.256c.309.171.617.336.926.497.145-.163.283-.329.42-.497h-.396v-1.046h1.045v.195zm0-2.624H80.06v-1.045h1.045v1.045zm-1.044-3.475V19.84h1.045v1.045h-1.045zm1.044.692v1.046H80.06v-1.046h1.045zM66.154 5.937h1.049v1.045h-1.049V5.937zm-.689 1.044h-1.047V5.937h1.047v1.044zm2.43-1.044l1.045-.002v1.047h-1.045V5.937zm-.692 1.736V8.72h-1.047V7.674l1.047-.001zm.692.001h1.045V8.72h-1.045V7.674zm8.689 6.952h1.045v1.045h-1.045v-1.045zm-.691 1.045h-1.049v-1.047h1.049v1.047zm.691-1.737v-1.048h1.045v1.048h-1.045zm-.691 0h-1.049v-1.048h1.049v1.048zm-1.739 0h-1.047v-1.046h1.047v1.046zm.692-1.739v-1.047h1.047v1.047h-1.047zm-.692 0h-1.047v-1.047h1.047v1.047zm-1.738 0h-1.045v-1.047h1.045v1.047zm.691-1.738V9.41h1.047v1.047h-1.047zm-.691 0h-1.045V9.41h1.045v1.047zm-1.738 0h-1.045V9.41h1.045v1.047zm.693-1.737V7.674h1.045V8.72h-1.045zm-.693 0h-1.045l-.002-1.046h1.047V8.72zm-1.739.69v1.047h-1.045V9.41h1.045zm0 1.738v1.047h-1.045v-1.047h1.045zm.694 0h1.045v1.047h-1.045v-1.047zm1.045 1.738v1.048h-1.047l.002-1.048h1.045zm.693 0h1.045v1.048h-1.045v-1.048zm1.045 1.74v1.045h-1.045v-1.045h1.045zm.693-.002h1.045v1.047h-1.047l.002-1.047zm1.045 1.739v1.046h-1.047v-1.047l1.047.001zm.692-.001l1.047.001v1.046h-1.047v-1.047zm1.736.001l1.047-.001v1.047h-1.047v-1.046zm1.74 0l1.045-.001v1.047h-1.045v-1.046zm-.693 1.737v1.048h-1.045V18.1h1.045zm.693.002h1.045v1.046h-1.045v-1.046zm1.045 1.736v1.047h-1.045v-1.047h1.045zm.694-.691v-1.046l1.045-.002v1.048h-1.045zm0-1.738v-1.046h1.045v1.046h-1.045zm0-1.738v-1.045h1.045v1.045h-1.045zm-.694 0h-1.045v-1.047h1.045v1.047zm-1.045-1.737v-1.046h1.045v1.046h-1.045zm0-1.739v-1.047h1.045v1.047h-1.045zm-.693 0h-1.047v-1.047h1.047v1.047zm-1.045-1.738V9.41h1.045v1.047h-1.045zm-.691 0h-1.049V9.41h1.049v1.047zM74.844 8.72V7.674h1.049V8.72h-1.049zm-.69 0h-1.047V7.674h1.047V8.72zm-1.047-1.739l.002-1.045h1.045v1.045h-1.047zm-.691 0h-1.045l-.002-1.045h1.047v1.045zm-1.738 0h-1.045V5.937h1.045v1.044zm-1.045-1.737V4.198h1.045v1.046h-1.045zm-.694 0h-1.045V4.196h1.045v1.048zm-1.736 0h-1.047V4.198h1.047v1.046zm-1.738 0h-1.047V4.198h1.047v1.046zm-1.738 0H62.68V4.196h1.047v1.048zm-1.741 1.737h-1.045V5.937h1.045v1.044zm.694-1.044h1.047v1.045H62.68V5.937zm1.047 1.737V8.72H62.68V7.674h1.047zm.691 0h1.047V8.72h-1.047V7.674zm1.047 1.736v1.047h-1.047V9.41h1.047zm.691 0h1.047v1.047h-1.047V9.41zm1.047 1.738v1.047h-1.047l-.002-1.047h1.049zm0 1.738v1.048h-1.047v-1.048h1.047zm.692 0l1.045.002v1.046h-1.045v-1.048zm1.044 1.738v1.047h-1.045v-1.047h1.045zm.694.002h1.045v1.045h-1.045v-1.045zm1.045 1.736v1.047h-1.045v-1.046l1.045-.001zm.693.001h1.045v1.046h-1.045v-1.046zm1.045 1.737v1.048h-1.045V18.1h1.045zm.691.002h1.047v1.046h-1.045l-.002-1.046zm1.737 0h1.049v1.046h-1.049v-1.046zm1.049 1.738v1.045h-1.049V19.84h1.049zm.691 0h1.045v1.045h-1.045V19.84zm1.045 1.737v1.046h-1.045l-.002-1.046h1.047zm.693 0h1.045v1.046h-1.045v-1.046zm1.045 1.738v1.045h-1.045v-1.045h1.045zm3.477-.692h-1.045v-1.046h1.045v1.046zm0-1.738h-1.045V19.84h1.045v1.045zm0-1.738h-1.045v-1.046h1.045v1.046zm0-1.738h-1.045l-.002-1.047 1.047.001v1.046zm0-1.738h-1.045v-1.047l1.045.002v1.045zm0-2.785v1.048h-1.045v-1.048h1.045zm-1.739 1.048H80.06v-1.048h1.045v1.048zm0-1.739H80.06v-1.047h1.045v1.047zm0-2.785v1.047H80.06V9.41h1.045zm-1.738 1.047h-1.045V9.41h1.045v1.047zm0-2.783V8.72h-1.045V7.674h1.045zM77.629 8.72h-1.045V7.674h1.045V8.72zm0-2.783v1.045h-1.047V5.937h1.047zm-1.736 1.044h-1.047V5.937h1.047v1.044zm0-2.783v1.046h-1.049V4.198h1.049zm-1.739-.002v1.048h-1.047V4.196h1.047zm-1.738 1.048h-1.045V4.198h1.045v1.046zm0-2.785v1.047h-1.045V2.459h1.045zm-1.738 0v1.047h-1.045V2.459h1.045zm-1.739.001v1.046h-1.045V2.46h1.045zm-1.736-.001v1.047h-1.047V2.459h1.047zm-1.738 0v1.047h-1.047V2.459h1.047zm-2.785.001h1.047v1.046H62.68V2.46zm-.692 1.738v1.046h-1.047V4.198h1.047zm-2.785-.002h1.045l.002 1.048h-1.047V4.196zm0 1.741h1.045v1.045h-1.045V5.937zm0 2.783V7.674h1.047l-.002 1.046h-1.045zm1.738-1.046h1.047V8.72h-1.047V7.674zm0 2.783V9.41h1.047v1.047h-1.047zM62.68 9.41h1.047v1.047H62.68V9.41zm0 2.785v-1.047h1.047v1.047H62.68zm1.738-1.047h1.047v1.047h-1.047v-1.047zm0 1.738h1.047v1.048h-1.047v-1.048zm0 2.785v-1.045h1.047v1.045h-1.047zm1.738-1.047h1.047v1.047h-1.047v-1.047zm0 2.785l-.002-1.047h1.049v1.047h-1.047zm1.739-1.046l1.045-.001v1.047h-1.045v-1.046zm0 2.784v-1.046h1.045v1.046h-1.045zm1.738-1.045l1.045-.002v1.048h-1.045v-1.046zm0 2.783l-.002-1.045h1.047v1.045h-1.045zm1.738 0V19.84h1.045v1.045h-1.045zm1.736-1.047h1.047v1.047h-1.047v-1.047zm0 2.785v-1.046h1.047v1.046h-1.047zm1.739-1.046h1.047v1.046h-1.047v-1.046zm-.002 2.783v-1.045h1.049v1.045h-1.049zm1.74-1.045h1.045v1.045h-1.045v-1.045zm-.002 2.784l.002-1.046h1.045v1.046h-1.047zm1.74 0v-1.046h1.045v1.046h-1.045zm1.739 0v-1.046h1.045v1.046h-1.045zM76.916 31.433c.418-.37.824-.754 1.223-1.144h-.533v-.96a53.24 53.24 0 0 1-1.305-.777h-.434v-.272c-.229-.146-.461-.293-.689-.443v.715h-1.047v-1.046h.545a48.738 48.738 0 0 1-1.236-.854v.161h-1.047v-.921a60.793 60.793 0 0 1-1.072-.817h-.666v-.525c-.49-.395-.977-.798-1.461-1.212h-.277v-.237c-.23-.2-.461-.402-.691-.606v.844h-1.047v-1.046H68a55.11 55.11 0 0 1-.76-.692h-.062v-.059c-.23-.214-.461-.432-.691-.651v.71H65.44v-1.046h.699a56.89 56.89 0 0 1-1.39-1.389v.697h-1.045v-1.045h.709a59.928 59.928 0 0 1-.65-.692h-.059v-.062a62.402 62.402 0 0 1-.693-.76v.821h-1.045v-1.046h.844a93.925 93.925 0 0 1-.607-.692h-.236v-.277a64.162 64.162 0 0 1-1.211-1.462h-.527v-.667a58.352 58.352 0 0 1-.818-1.071h-.92v-1.046h.162a63.643 63.643 0 0 1-.854-1.237v.545H56.75v-1.045h.715c-.15-.231-.297-.463-.443-.692h-.272v-.434a60.429 60.429 0 0 1-.777-1.305h-.959v-.533c-.391.399-.773.808-1.145 1.224h.451v1.048h-1.045v-.349c-.275.34-.541.686-.789 1.041h.096v1.045h-.76a9.956 9.956 0 0 0-.754 1.62c-.098.268-.188.538-.273.811h.049v1.046h-.365c-.067.229-.132.461-.199.692h.564v1.045h-.867c-.249.826-.521 1.643-.871 2.431h.002v1.045h-.528a9.346 9.346 0 0 1-.432.692h.96V21.6h-1.046v-.92a9.006 9.006 0 0 1-.384.507c.302.367.608.735.921 1.105h.509v.599c.325.378.656.759.99 1.14h.746v.84a317 317 0 0 0 .816.897h.922v.994l.703.744h1.035v1.046h-.027c.238.244.479.489.721.733v-.041h1.045v1.045h-.041c.242.242.49.481.732.72v-.027h1.047v1.035c.248.236.496.47.744.703h.994v.922l.896.815h.842l-.002.746c.383.336.762.667 1.141.992h.6l-.002.509c.371.312.738.621 1.105.921.166-.136.336-.263.508-.384h-.92v-1.046h1.045v.96c.229-.154.459-.299.691-.432v-.528h1.047v.002c.787-.35 1.604-.622 2.43-.869v-.871h1.045v.566l.693-.199v-.367h1.047l-.002.05c.273-.085.543-.176.812-.272.559-.2 1.098-.456 1.619-.754v-.761h1.047v.098c.352-.249.699-.513 1.037-.79h-.348v-1.046h1.049v.451zm-1.738-2.189v1.045h-1.047v-1.045h1.047zM54.32 13.603v1.046h-1.045v-1.046h1.045zm-1.045-.693v-1.046h1.045v1.046h-1.045zm16.686 17.379h-1.045v-1.045h1.045v1.045zm.693-1.045h1.047l-.002 1.045h-1.045v-1.045zM54.32 18.124h-1.045v-1.046h1.045v1.046zm.694-1.046h1.045v1.046h-1.045v-1.046zm-.694 1.738v1.045h-1.045v-1.045h1.045zm.694 0h1.045v1.045h-1.045v-1.045zm1.736 0h1.047v1.045H56.75v-1.045zm-.691 1.738V21.6h-1.045v-1.046h1.045zm.691 0h1.047V21.6H56.75v-1.046zm1.047 1.738v1.046H56.75v-1.046h1.047zm.691 0h1.047v1.046h-1.047v-1.046zm1.047 1.738v1.045h-1.047V24.03h1.047zm.692 0h1.047l-.002 1.045h-1.045V24.03zm1.046 1.738l-.002 1.046h-1.045v-1.046h1.047zm.692 0h1.045v1.046h-1.045v-1.046zm1.045 1.738l.002 1.046h-1.047v-1.046h1.045zm.693 0h1.045v1.046h-1.045v-1.046zm1.736 0h1.047v1.046h-1.047v-1.046zm-.691 1.738v1.045h-1.045v-1.045h1.045zm.691 0h1.047v1.045h-1.047v-1.045zm1.739 0h1.047v1.045h-1.047v-1.045zm-.692 1.737v1.046h-1.047v-1.046h1.047zm.692 0h1.047v1.046h-1.047v-1.046zm1.738-2.429v-1.046h1.047v1.046h-1.047zm-.691 0h-1.047v-1.046h1.047v1.046zm-1.047-1.739v-1.046h1.047v1.046h-1.047zm-.692 0h-1.047v-1.046h1.047v1.046zm-1.736 0h-1.047v-1.046h1.045l.002 1.046zm-1.047-1.738V24.03h1.045v1.045h-1.045zm-.691 0h-1.047V24.03h1.047v1.045zm-1.047-1.737v-1.046h1.045v1.046h-1.045zm-.694 0h-1.045v-1.046h1.045v1.046zM60.227 21.6v-1.046h1.045V21.6h-1.045zm-.692 0h-1.047v-1.046h1.047V21.6zm-1.047-1.739v-1.045h1.047v1.045h-1.047zm0-1.737v-1.046h1.047v1.046h-1.047zm-.691 0H56.75v-1.046h1.047v1.046zm-1.047-1.738v-1.045h1.047v1.045H56.75zm-.691 0h-1.045v-1.045h1.045v1.045zm-1.045-1.738v-1.046h1.045v1.046h-1.045zm-.694.693v1.045h-1.045v-1.045h1.045zm-1.738 2.783h-1.045v-1.046h1.045v1.046zm0 .692v1.045h-1.045v-1.045h1.045zm0 1.738V21.6h-1.045v-1.046h1.045zm.693 0h1.045V21.6h-1.045v-1.046zm1.045 1.738v1.046h-1.045v-1.046h1.045zm.694 0h1.045v1.046h-1.045v-1.046zm1.045 1.738v1.045h-1.045V24.03h1.045zm.691 0h1.049v1.045H56.75V24.03zm1.047 1.738v1.046H56.75v-1.046h1.047zm.691 0h1.047v1.046h-1.047v-1.046zm1.047 1.738v1.046h-1.047v-1.046h1.047zm.692 0h1.047l-.002 1.046h-1.045v-1.046zm1.044 1.738l.002 1.045h-1.047v-1.045h1.045zm.694 0h1.047v1.045h-1.047v-1.045zm1.045 1.737l.002 1.046h-1.047v-1.046h1.045zm.693 0h1.045v1.046h-1.045v-1.046zm1.045 1.739v1.045h-1.045V32.72h1.045zm.691 0h1.047l.002 1.045h-1.049V32.72zm1.739 0h1.047v1.045h-1.047V32.72zm1.738-1.739h1.047l-.002 1.046h-1.045v-1.046zm1.738 0h1.047l-.002 1.046h-1.045v-1.046zm1.739 0h1.045v1.046h-1.045v-1.046zm1.046-.692h-1.047v-1.045h1.047v1.045zm0-2.783l-.002 1.046h-1.045v-1.046h1.047zm-1.738 1.046h-1.047v-1.046h1.045l.002 1.046zm-.002-2.784v1.046h-1.045v-1.046h1.045zm-1.738 1.045h-1.045v-1.046h1.045v1.046zm0-2.783v1.045h-1.045V24.03h1.045zm-1.736 0v1.045h-1.047V24.03h1.047zm-1.737 1.045h-1.049V24.03h1.047l.002 1.045zm-.002-2.783v1.046h-1.047v-1.046h1.047zm-1.738 1.046h-1.045v-1.046h1.045v1.046zm0-2.784V21.6h-1.045v-1.046h1.045zM63.01 21.6h-1.045v-1.046h1.045V21.6zm.002-2.784v1.045h-1.047v-1.045h1.047zm-1.739 1.045h-1.047v-1.045h1.047v1.045zm0-1.737h-1.047v-1.046h1.047v1.046zm-.002-2.783l.002 1.045h-1.047v-1.045h1.045zm-1.736 1.045h-1.047v-1.045h1.047v1.045zm0-2.783v1.046h-1.047v-1.046h1.047zm-1.738 1.045H56.75v-1.046h1.049l-.002 1.046zm0-2.784v1.046H56.75v-1.046h1.047zm-1.738 1.046h-1.045v-1.046h1.045v1.046zm0-1.738h-1.045v-1.045h1.045v1.045zm-1.045-2.785h1.045v1.048h-1.045V8.387zm-1.739 1.74h1.045v1.045h-1.045v-1.045zm-1.738 1.737h1.045v1.046h-1.045v-1.046zm0 1.739h1.045v1.046h-1.045v-1.046zm0 1.738h1.045v1.045h-1.045v-1.045zM49.8 17.078h1.044v1.046H49.8v-1.046zm0 1.738h1.044v1.045H49.8v-1.045zm0 1.738h1.044V21.6H49.8v-1.046zm0 2.784v-1.046h1.044v1.046H49.8zm1.737-1.046h1.045v1.046h-1.045v-1.046zm0 2.783V24.03h1.045v1.045h-1.045zm1.738-1.045h1.045v1.045h-1.045V24.03zm0 2.783v-1.046h1.045v1.046h-1.045zm1.739-1.045h1.045v1.046h-1.045v-1.046zm0 2.784v-1.046h1.045v1.046h-1.045zm1.736-1.046h1.047v1.046H56.75v-1.046zm0 2.783v-1.045h1.049l-.002 1.045H56.75zm1.738-1.045h1.047v1.045h-1.047v-1.045zm0 2.783v-1.046h1.047v1.046h-1.047zm1.739-1.046h1.045v1.046h-1.045v-1.046zm0 2.784V32.72h1.047v1.045h-1.047zm1.738-1.045h1.045v1.045h-1.045V32.72zm0 2.783v-1.046h1.047l-.002 1.046h-1.045zm1.738 0v-1.046h1.045v1.046h-1.045zm1.736 0v-1.046h1.047v1.046h-1.047zm2.786 0h-1.047v-1.046h1.047v1.046zm.691-1.738V32.72h1.045v1.045h-1.045zm1.738 0V32.72h1.045v1.045h-1.045zm2.784 0h-1.045V32.72h1.045v1.045zm1.74-1.738h-1.047v-1.046h1.047v1.046zm.689-1.738v-1.045h1.049v1.045h-1.049zM38.046 47.438a1.835 1.835 0 0 0 2.593 0l4.242-4.242-2.775-2.774-4.241 4.242a1.838 1.838 0 0 0 0 2.595l.181.179z"></path><path d="M98.664 50.253a44 44 0 0 0-10.477-3.221 45.644 45.644 0 0 0-10.814-.588c-7.229.465-14.383 2.645-20.693 6.306-5.098 2.958-9.173 6.567-12.824 11.36-3.24 4.252-5.75 8.914-8.406 13.852-1.312 2.438-2.669 4.958-4.161 7.516-3.639 6.236-9.881 10.849-15.528 11.477-.475.053-.944.078-1.409.078-3.424 0-6.501-1.443-9.162-4.3-1.854-1.991-2.701-3.92-2.588-5.893.114-1.986 1.211-3.901 2.757-5.731l.233.233c.508.509 1.452.387 2.108-.27l1.354-1.354c1.452 1.028 2.734 1.444 3.234.946l50.836-42.159a126.706 126.706 0 0 1-8.525-7.802 127.17 127.17 0 0 1-7.801-8.525L4.638 73.016c-.498.5-.082 1.782.946 3.234l-1.353 1.354c-.656.656-.777 1.601-.271 2.108l.134.134C2.281 81.964.964 84.247.823 86.739c-.141 2.449.889 4.875 3.061 7.207 1.755 1.884 3.718 3.239 5.838 4.033 1.484.556 3.042.833 4.649.833.524 0 1.053-.029 1.586-.089 3.215-.356 6.556-1.8 9.663-4.176 2.835-2.162 5.394-5.065 7.207-8.172 1.506-2.583 2.87-5.119 4.19-7.57 5.285-9.82 9.848-18.301 20.557-24.514 12.514-7.262 27.602-8.165 40.359-2.415a.889.889 0 0 0 1.176-.445.889.889 0 0 0-.445-1.178zM37.36 44.161l8.485-8.485a2.55 2.55 0 0 1 3.601 0l.181.181c.992.993.992 2.608.001 3.601l-8.485 8.485a2.55 2.55 0 0 1-3.601 0l-.182-.182a2.55 2.55 0 0 1 0-3.6z"></path></g></switch></g><!----></svg>